<svg id="Layer_1" data-name="Layer 1" xmlns="http://www.w3.org/2000/svg" viewBox="0 0 900 798.26"><defs><style>.cls-1{fill:#fff;}</style></defs><path class="cls-1" d="M564.72,373.09l-20.94,52.29c-10.09,24.64-15.08,31.39-28,31.39H497.49V441.64h15.89c4.11,0,8.47-3.63,5.23-15l-21.06-53.54h19.19l14.45,40.15,14.34-40.15Z"/><path class="cls-1" d="M298.31,341.49v57.65c0,17.59-8.87,35.87-36.16,35.87S226,414.14,226,395h22.51c0,5.91.42,21.29,13.64,21.29s13.65-12.09,13.65-17.16V341.49Z"/><path class="cls-1" d="M227.71,348.13a7.75,7.75,0,0,1-1.12-.79,1.48,1.48,0,0,1-.59-1.16v-3.76a.85.85,0,0,1,.32-.67,1.24,1.24,0,0,1,.8-.26,1.06,1.06,0,0,1,.24,0,1.48,1.48,0,0,1,.35.11l18.67,10.46a5.06,5.06,0,0,1,1.15.77,1.41,1.41,0,0,1,.4,1.09v1.86a1.4,1.4,0,0,1-.4,1.08,5.4,5.4,0,0,1-1.15.78l-18.67,10.45a2.44,2.44,0,0,1-.35.12l-.24,0a1.19,1.19,0,0,1-.8-.27.84.84,0,0,1-.32-.66v-3.77a1.47,1.47,0,0,1,.59-1.15,7.87,7.87,0,0,1,1.12-.8l12.06-6.73Z"/><path class="cls-1" d="M370.87,404.16c0,19.89-14.9,30.85-31.81,30.85s-31.81-11-31.81-30.85,14.89-31.1,31.81-31.1S370.87,384.26,370.87,404.16Zm-45.16,0c0,9.53,4.41,16.32,13.35,16.32s13.34-6.79,13.34-16.32-4.41-16.57-13.34-16.57S325.71,394.5,325.71,404.16Z"/><path class="cls-1" d="M408,399.87c9.53,4.29,16.32,9.29,16.32,17.87,0,11.2-10.36,17.27-23,17.27-9.17,0-20.49-3.93-26.93-11.2l10.73-10.72c4.88,5,10.72,7.39,14.65,7.39,3.69,0,5.6-1.31,5.6-3.81,0-3.82-4.29-6-12.27-9.89-10.37-5.13-15-9.77-15-17,0-12.75,13.7-16.68,22.16-16.68s18.23,3,24.06,9.89L414,393.31c-3.1-3.21-7.39-5.72-12.15-5.72-2.15,0-5.25,1.08-5.25,3.58C396.6,394,398.51,395.46,408,399.87Z"/><path class="cls-1" d="M497.52,404c0,20.49-11.8,31-26.81,31-6.07,0-14.41-1.9-19.54-8.69V435H432.71V341.49h18.46v40.27c5.13-6.79,13.47-8.7,19.54-8.7C485.72,373.06,497.52,384.74,497.52,404Zm-18.47,0c0-9.65-5-16.45-13.94-16.45s-13.94,6.8-13.94,16.45,5,16.44,13.94,16.44S479.05,413.57,479.05,404Z"/><path class="cls-1" d="M605.49,432.15c-2.26,1.43-5.84,2.86-12.39,2.86-11.08,0-17.63-6.19-17.63-23.59V388.19h-6.55v-15.1h6.55V358.17h18.47v14.92h11.55v15.1H593.94v21.92c0,9.3,3.81,13,11.55,10.25Z"/><path class="cls-1" d="M674,410l-41.7-.35c0,6.91,6.79,10.84,13.58,10.84a19.48,19.48,0,0,0,13.82-5.72l11,10.13C664.23,431.2,656,435,644.93,435c-19.3,0-31.1-13.7-31.1-31.09s11.8-30.86,30-30.86c18.58,0,30.14,13.22,30.14,30.86Zm-18.47-11.55c0-6.56-5-10.85-11.67-10.85-6.44,0-11.56,4.29-11.56,10.85Z"/></svg>