<svg width="45" height="59" viewBox="0 0 45 59" fill="none" xmlns="http://www.w3.org/2000/svg">
<path d="M45 0.027832V36.3676C45 47.4614 39.4848 59 22.5 59C5.51524 59 0 45.8488 0 33.7818H13.9939C13.9939 37.5076 14.2683 47.2112 22.5 47.2112C30.7317 47.2112 30.9787 39.5929 30.9787 36.3954V0.027832H45Z" fill="#333366"/>
<path d="M1.07015 4.1984C0.823202 4.05938 0.576251 3.89256 0.384178 3.69793C0.164666 3.53111 0.0274658 3.25307 0.0274658 2.97503V0.583885C0.0274658 0.417061 0.109786 0.278041 0.219542 0.166825C0.356737 0.0556096 0.548807 0 0.713441 0C0.768319 0 0.823197 0 0.850636 0C0.932954 0.027804 0.987837 0.0278073 1.07015 0.0556113L12.7043 6.67295C12.9512 6.81197 13.1982 6.9788 13.4177 7.17343C13.5823 7.36805 13.6921 7.59048 13.6647 7.86852V9.03629C13.6921 9.28652 13.5823 9.53676 13.4177 9.73138C13.1982 9.92601 12.9512 10.0928 12.7043 10.2319L1.07015 16.8214C0.987837 16.8492 0.932954 16.877 0.850636 16.877C0.795758 16.877 0.74088 16.877 0.713441 16.877C0.521368 16.877 0.356737 16.8214 0.219542 16.7102C0.0823472 16.599 0.0274658 16.4599 0.0274658 16.2931V13.9298C0.0274658 13.6517 0.164666 13.3737 0.384178 13.2069C0.60369 13.0123 0.850641 12.8454 1.07015 12.7064L8.58844 8.4524L1.07015 4.1984Z" fill="#DC1C51"/>
</svg>
