<svg width="607" height="557" viewBox="0 0 607 557" fill="none" xmlns="http://www.w3.org/2000/svg">
<g clip-path="url(#clip0_1024_1209)">
<path d="M269.497 55C264.057 55 258.739 53.387 254.217 50.3649C249.694 47.3427 246.168 43.0473 244.087 38.0217C242.005 32.9961 241.46 27.4661 242.522 22.1309C243.583 16.7958 246.202 11.8952 250.049 8.04874C253.895 4.20232 258.796 1.58287 264.131 0.521647C269.466 -0.539579 274.996 0.00508084 280.022 2.08675C285.047 4.16842 289.343 7.6936 292.365 12.2165C295.387 16.7394 297 22.0569 297 27.4966C296.993 34.7887 294.093 41.7801 288.936 46.9365C283.78 52.0928 276.789 54.9928 269.497 55V55ZM269.497 4.72311C264.992 4.72311 260.589 6.05875 256.844 8.56113C253.099 11.0635 250.18 14.6203 248.457 18.7816C246.733 22.9429 246.282 27.5219 247.161 31.9395C248.039 36.3571 250.208 40.415 253.393 43.5999C256.578 46.7848 260.636 48.9538 265.054 49.8325C269.471 50.7112 274.05 50.2602 278.212 48.5366C282.373 46.8129 285.93 43.894 288.432 40.1489C290.934 36.4038 292.27 32.0008 292.27 27.4966C292.263 21.4589 289.861 15.6706 285.592 11.4013C281.323 7.13202 275.534 4.73035 269.497 4.72311V4.72311Z" fill="#DC1C51"/>
</g>
<g clip-path="url(#clip1_1024_1209)">
<path d="M57.4973 251C53.2445 251 49.0872 249.739 45.5511 247.376C42.015 245.013 39.2589 241.655 37.6314 237.726C36.0039 233.797 35.5781 229.473 36.4078 225.302C37.2375 221.131 39.2854 217.3 42.2926 214.293C45.2998 211.285 49.1312 209.237 53.3024 208.408C57.4735 207.578 61.7969 208.004 65.726 209.631C69.6551 211.259 73.0134 214.015 75.3761 217.551C77.7389 221.087 79 225.244 79 229.497C78.9943 235.198 76.727 240.664 72.6957 244.696C68.6644 248.727 63.1984 250.994 57.4973 251V251ZM57.4973 211.693C53.9759 211.693 50.5335 212.737 47.6055 214.693C44.6776 216.65 42.3955 219.43 41.0479 222.684C39.7003 225.937 39.3477 229.517 40.0347 232.971C40.7217 236.425 42.4174 239.597 44.9075 242.087C47.3975 244.577 50.57 246.273 54.0238 246.96C57.4776 247.647 61.0575 247.294 64.3109 245.947C67.5643 244.599 70.345 242.317 72.3014 239.389C74.2578 236.461 75.302 233.019 75.302 229.497C75.2964 224.777 73.4187 220.252 70.0809 216.914C66.7431 213.576 62.2177 211.698 57.4973 211.693V211.693Z" fill="#DC1C51"/>
</g>
<g clip-path="url(#clip2_1024_1209)">
<path d="M34.8 93.6C54.0195 93.6 69.6 78.0195 69.6 58.8C69.6 39.5805 54.0195 24 34.8 24C15.5805 24 0 39.5805 0 58.8C0 78.0195 15.5805 93.6 34.8 93.6Z" fill="#333366"/>
</g>
<g clip-path="url(#clip3_1024_1209)">
<path d="M533.004 141.008C547.918 141.008 560.008 128.918 560.008 114.004C560.008 99.09 547.918 87 533.004 87C518.09 87 506 99.09 506 114.004C506 128.918 518.09 141.008 533.004 141.008Z" fill="#333366"/>
</g>
<g clip-path="url(#clip4_1024_1209)">
<path d="M63.5027 505.005C73.7214 505.005 82.0053 496.721 82.0053 486.503C82.0053 476.284 73.7214 468 63.5027 468C53.2839 468 45 476.284 45 486.503C45 496.721 53.2839 505.005 63.5027 505.005Z" fill="#333366"/>
</g>
<g clip-path="url(#clip5_1024_1209)">
<path d="M564.495 453C556.088 453 547.87 450.507 540.88 445.837C533.89 441.166 528.442 434.528 525.225 426.761C522.008 418.994 521.166 410.448 522.806 402.202C524.446 393.957 528.495 386.384 534.439 380.439C540.384 374.495 547.957 370.446 556.202 368.806C564.448 367.166 572.994 368.008 580.761 371.225C588.528 374.442 595.166 379.89 599.837 386.88C604.507 393.87 607 402.088 607 410.495C606.989 421.764 602.507 432.569 594.538 440.538C586.569 448.507 575.764 452.989 564.495 453V453ZM564.495 375.299C557.534 375.299 550.729 377.364 544.941 381.231C539.153 385.098 534.642 390.595 531.979 397.026C529.315 403.457 528.618 410.534 529.976 417.361C531.334 424.188 534.686 430.46 539.608 435.382C544.53 440.304 550.801 443.656 557.629 445.014C564.456 446.372 571.532 445.675 577.964 443.011C584.395 440.347 589.891 435.836 593.759 430.048C597.626 424.26 599.69 417.456 599.69 410.495C599.679 401.164 595.967 392.218 589.369 385.62C582.771 379.022 573.826 375.311 564.495 375.299V375.299Z" fill="#DC1C51"/>
</g>
<g clip-path="url(#clip6_1024_1209)">
<path d="M278.997 557C273.854 557 268.826 555.475 264.55 552.618C260.274 549.76 256.941 545.699 254.973 540.948C253.005 536.196 252.49 530.968 253.493 525.924C254.497 520.88 256.973 516.246 260.61 512.61C264.246 508.973 268.88 506.496 273.924 505.493C278.968 504.49 284.196 505.005 288.948 506.973C293.699 508.941 297.76 512.274 300.618 516.55C303.475 520.826 305 525.854 305 530.997C304.993 537.891 302.251 544.501 297.376 549.376C292.501 554.251 285.891 556.993 278.997 557V557ZM278.997 509.465C274.738 509.465 270.575 510.728 267.035 513.094C263.494 515.46 260.734 518.823 259.104 522.757C257.475 526.691 257.048 531.021 257.879 535.197C258.71 539.374 260.761 543.21 263.772 546.222C266.783 549.233 270.62 551.283 274.796 552.114C278.973 552.945 283.302 552.519 287.236 550.889C291.171 549.259 294.534 546.5 296.899 542.959C299.265 539.418 300.528 535.255 300.528 530.997C300.521 525.288 298.251 519.816 294.214 515.779C290.178 511.743 284.705 509.472 278.997 509.465V509.465Z" fill="#DC1C51"/>
</g>
<defs>
<clipPath id="clip0_1024_1209">
<rect width="55" height="55" fill="white" transform="translate(242)"/>
</clipPath>
<clipPath id="clip1_1024_1209">
<rect width="43" height="43" fill="white" transform="translate(36 208)"/>
</clipPath>
<clipPath id="clip2_1024_1209">
<rect width="69.59" height="69.59" fill="white" transform="translate(0 24)"/>
</clipPath>
<clipPath id="clip3_1024_1209">
<rect width="54" height="54" fill="white" transform="translate(506 87)"/>
</clipPath>
<clipPath id="clip4_1024_1209">
<rect width="37" height="37" fill="white" transform="translate(45 468)"/>
</clipPath>
<clipPath id="clip5_1024_1209">
<rect width="85" height="85" fill="white" transform="translate(522 368)"/>
</clipPath>
<clipPath id="clip6_1024_1209">
<rect width="52" height="52" fill="white" transform="translate(253 505)"/>
</clipPath>
</defs>
</svg>
