<svg width="504" height="512" viewBox="0 0 504 512" fill="none" xmlns="http://www.w3.org/2000/svg">
<g clip-path="url(#clip0_1024_1209)">
<path d="M156.212 52.4315C151.027 52.4315 145.958 50.8938 141.646 48.0128C137.334 45.1318 133.974 41.0369 131.989 36.246C130.005 31.4551 129.486 26.1834 130.497 21.0974C131.509 16.0114 134.006 11.3396 137.673 7.6728C141.34 4.006 146.011 1.50888 151.097 0.497211C156.183 -0.514456 161.455 0.00476847 166.246 1.98922C171.037 3.97368 175.132 7.33424 178.013 11.6459C180.894 15.9576 182.431 21.0268 182.431 26.2125C182.425 33.164 179.66 39.8289 174.744 44.7445C169.829 49.66 163.164 52.4246 156.212 52.4315V52.4315ZM156.212 4.50247C151.919 4.50247 147.721 5.77574 144.151 8.16126C140.581 10.5468 137.798 13.9374 136.155 17.9044C134.512 21.8714 134.082 26.2365 134.92 30.4479C135.757 34.6592 137.825 38.5275 140.861 41.5637C143.897 44.5999 147.766 46.6676 151.977 47.5053C156.188 48.343 160.554 47.913 164.521 46.2699C168.487 44.6267 171.878 41.8441 174.264 38.2739C176.649 34.7037 177.922 30.5063 177.922 26.2125C177.916 20.4567 175.626 14.9387 171.556 10.8688C167.486 6.79889 161.968 4.50937 156.212 4.50247V4.50247Z" fill="#DC1C51"/>
</g>
<g clip-path="url(#clip1_1024_1209)">
<path d="M33.1749 227.35C51.4968 227.35 66.3497 212.497 66.3497 194.175C66.3497 175.853 51.4968 161 33.1749 161C14.8529 161 0 175.853 0 194.175C0 212.497 14.8529 227.35 33.1749 227.35Z" fill="#333366"/>
</g>
<g clip-path="url(#clip2_1024_1209)">
<path d="M399.743 194.486C413.96 194.486 425.486 182.96 425.486 168.743C425.486 154.525 413.96 143 399.743 143C385.525 143 374 154.525 374 168.743C374 182.96 385.525 194.486 399.743 194.486Z" fill="#333366"/>
</g>
<g clip-path="url(#clip3_1024_1209)">
<path d="M102.639 511.277C112.38 511.277 120.277 503.38 120.277 493.639C120.277 483.897 112.38 476 102.639 476C92.8971 476 85 483.897 85 493.639C85 503.38 92.8971 511.277 102.639 511.277Z" fill="#333366"/>
</g>
<g clip-path="url(#clip4_1024_1209)">
<path d="M462.51 413.031C454.496 413.031 446.662 410.654 439.998 406.202C433.335 401.749 428.141 395.421 425.074 388.017C422.008 380.613 421.205 372.465 422.769 364.605C424.332 356.745 428.191 349.525 433.858 343.858C439.525 338.191 446.745 334.332 454.605 332.769C462.465 331.205 470.613 332.008 478.017 335.074C485.421 338.141 491.749 343.335 496.202 349.998C500.654 356.662 503.031 364.496 503.031 372.51C503.02 383.254 498.747 393.554 491.151 401.151C483.554 408.747 473.254 413.02 462.51 413.031V413.031ZM462.51 338.959C455.874 338.959 449.388 340.926 443.87 344.613C438.352 348.3 434.052 353.54 431.513 359.671C428.973 365.801 428.309 372.548 429.603 379.056C430.898 385.564 434.093 391.543 438.786 396.235C443.478 400.927 449.456 404.123 455.965 405.417C462.473 406.712 469.219 406.048 475.35 403.508C481.481 400.969 486.721 396.668 490.408 391.151C494.094 385.633 496.062 379.146 496.062 372.51C496.051 363.615 492.513 355.087 486.223 348.797C479.933 342.508 471.406 338.969 462.51 338.959V338.959Z" fill="#DC1C51"/>
</g>
<defs>
<clipPath id="clip0_1024_1209">
<rect width="52.4315" height="52.4315" fill="white" transform="translate(130)"/>
</clipPath>
<clipPath id="clip1_1024_1209">
<rect width="66.3402" height="66.3402" fill="white" transform="translate(0 161)"/>
</clipPath>
<clipPath id="clip2_1024_1209">
<rect width="51.4782" height="51.4782" fill="white" transform="translate(374 143)"/>
</clipPath>
<clipPath id="clip3_1024_1209">
<rect width="35.2721" height="35.2721" fill="white" transform="translate(85 476)"/>
</clipPath>
<clipPath id="clip4_1024_1209">
<rect width="81.0306" height="81.0306" fill="white" transform="translate(422 332)"/>
</clipPath>
</defs>
</svg>
