<svg width="94" height="90" viewBox="0 0 94 90" fill="none" xmlns="http://www.w3.org/2000/svg">
<path d="M43.9275 89.9921C68.1837 89.9921 87.8472 70.3539 87.8472 46.129C87.8472 21.904 68.1837 2.26587 43.9275 2.26587C19.6713 2.26587 0.0078125 21.904 0.0078125 46.129C0.0078125 70.3539 19.6713 89.9921 43.9275 89.9921Z" fill="#DC1C51"/>
<path d="M48.5282 86.1291C72.123 86.1291 91.2504 67.0263 91.2504 43.4619C91.2504 19.8974 72.123 0.794678 48.5282 0.794678C24.9333 0.794678 5.80591 19.8974 5.80591 43.4619C5.80591 67.0263 24.9333 86.1291 48.5282 86.1291Z" fill="white"/>
<path d="M20.3409 35.4051C19.82 35.311 19.3122 35.1552 18.8283 34.9409C18.6073 34.8843 18.4055 34.7699 18.2435 34.6094C18.0815 34.449 17.9652 34.2484 17.9066 34.0282L17.2369 30.5507C17.2237 30.4247 17.2412 30.2974 17.2878 30.1796C17.3345 30.0618 17.4089 29.957 17.5048 29.874C17.7737 29.6485 18.0968 29.4966 18.4423 29.4334L18.718 29.3862C18.8913 29.3862 19.0016 29.3862 19.1749 29.3862L44.3293 34.5082C44.8675 34.6111 45.395 34.7639 45.9049 34.9645C46.0893 35.0432 46.2497 35.1689 46.37 35.3291C46.4903 35.4894 46.5663 35.6784 46.5903 35.8772L46.9212 37.5766C46.9679 37.7706 46.9649 37.9731 46.9126 38.1656C46.8603 38.3581 46.7603 38.5344 46.6218 38.6781C46.2254 39.0522 45.7956 39.3893 45.3377 39.6852L23.9017 53.7686C23.7677 53.8418 23.6247 53.8974 23.4763 53.9338L23.2006 53.9889C22.8578 54.0634 22.5014 54.0444 22.1686 53.9338C22.0427 53.9009 21.9287 53.8332 21.8395 53.7386C21.7504 53.644 21.6897 53.5263 21.6644 53.3988L20.9947 49.9606C20.9693 49.7363 21.0032 49.5093 21.093 49.3022C21.1829 49.0951 21.3256 48.9152 21.5068 48.7804C21.8943 48.4202 22.3077 48.0889 22.7436 47.7891L36.5931 38.686L20.3409 35.4051Z" fill="#333366" stroke="#F2F2F2" stroke-miterlimit="10"/>
<path d="M57.9426 88.1196C49.2997 89.7908 40.3547 88.8649 32.2388 85.459C24.1229 82.053 17.2004 76.32 12.347 68.985C7.49347 61.6499 4.92689 53.0421 4.97177 44.2502C5.01665 35.4584 7.67099 26.8772 12.5991 19.5919C17.5272 12.3066 24.5078 6.64443 32.6581 3.32132C40.8084 -0.00178394 49.7624 -0.836538 58.3877 0.922619C67.013 2.68178 74.9223 6.95584 81.1154 13.2043C87.3085 19.4528 91.5073 27.3951 93.1807 36.0267C95.4096 47.5999 92.9514 59.5835 86.3455 69.3491C79.7396 79.1147 69.5251 85.8651 57.9426 88.1196ZM42.226 7.08103C34.8166 8.51456 27.9993 12.1105 22.6366 17.4141C17.2738 22.7177 13.6065 29.4906 12.0985 36.876C10.5906 44.2615 11.3097 51.9277 14.1649 58.9049C17.0202 65.8821 21.8833 71.8568 28.139 76.0733C34.3948 80.2899 41.7622 82.5587 49.3093 82.5929C56.8564 82.627 64.2441 80.425 70.5379 76.2653C76.8316 72.1056 81.7488 66.1751 84.6672 59.224C87.5857 52.2729 88.3744 44.6136 86.9335 37.2148C84.9911 27.3058 79.1947 18.57 70.8145 12.9216C62.4343 7.27322 52.1539 5.17295 42.226 7.08103Z" fill="#333366"/>
<path d="M52.1522 54.052L81.411 48.3872C83.6877 60.1889 72.3592 72.3762 56.3039 75.484C40.2486 78.5918 25.1622 71.4635 22.8855 59.7483V59.6618L52.1522 54.052Z" fill="#DC1C51"/>
</svg>
