<svg width="557" height="799" viewBox="0 0 557 799" fill="none" xmlns="http://www.w3.org/2000/svg">
<path fill-rule="evenodd" clip-rule="evenodd" d="M970.46 0.933458L78.561 0.933411L78.561 0L970.46 4.72472e-05L970.46 0.933458Z" fill="black" fill-opacity="0.27"/>
<path fill-rule="evenodd" clip-rule="evenodd" d="M967.379 67.2056L52.374 67.2056L52.374 66.2722L967.379 66.2722L967.379 67.2056Z" fill="black" fill-opacity="0.27"/>
<path fill-rule="evenodd" clip-rule="evenodd" d="M967.379 33.6029L7.70203 33.6028L7.70203 32.6694L967.379 32.6695L967.379 33.6029Z" fill="black" fill-opacity="0.27"/>
<path fill-rule="evenodd" clip-rule="evenodd" d="M967.379 99.875L1.34667e-07 99.8751L0 98.9417L967.379 98.9416L967.379 99.875Z" fill="black" fill-opacity="0.27"/>
<path fill-rule="evenodd" clip-rule="evenodd" d="M970.46 133.478L78.561 133.478L78.561 132.544L970.46 132.544L970.46 133.478Z" fill="black" fill-opacity="0.27"/>
<path fill-rule="evenodd" clip-rule="evenodd" d="M525.28 132.544L525.28 -4.08007e-08L526.821 0L526.821 132.544L525.28 132.544Z" fill="black" fill-opacity="0.27"/>
<path fill-rule="evenodd" clip-rule="evenodd" d="M301.921 132.544L301.921 -4.08007e-08L303.461 0L303.461 132.544L301.921 132.544Z" fill="black" fill-opacity="0.27"/>
<path fill-rule="evenodd" clip-rule="evenodd" d="M343.512 132.544L343.512 -4.08007e-08L345.052 0L345.052 132.544L343.512 132.544Z" fill="black" fill-opacity="0.27"/>
<path fill-rule="evenodd" clip-rule="evenodd" d="M120.152 132.544L120.152 -4.08007e-08L121.693 0L121.692 132.544L120.152 132.544Z" fill="black" fill-opacity="0.27"/>
<path fill-rule="evenodd" clip-rule="evenodd" d="M389.724 132.544L389.724 -4.08007e-08L391.265 0L391.265 132.544L389.724 132.544Z" fill="black" fill-opacity="0.27"/>
<path fill-rule="evenodd" clip-rule="evenodd" d="M167.905 132.544L167.905 -4.08007e-08L169.445 0L169.445 132.544L167.905 132.544Z" fill="black" fill-opacity="0.27"/>
<path fill-rule="evenodd" clip-rule="evenodd" d="M477.528 132.544L477.528 -4.08007e-08L479.068 0L479.068 132.544L477.528 132.544Z" fill="black" fill-opacity="0.27"/>
<path fill-rule="evenodd" clip-rule="evenodd" d="M255.708 132.544L255.708 -4.08007e-08L257.249 0L257.249 132.544L255.708 132.544Z" fill="black" fill-opacity="0.27"/>
<path fill-rule="evenodd" clip-rule="evenodd" d="M434.396 133.478L434.396 -4.08007e-08L435.937 0L435.937 133.478L434.396 133.478Z" fill="black" fill-opacity="0.27"/>
<path fill-rule="evenodd" clip-rule="evenodd" d="M212.577 133.478L212.577 -4.08007e-08L214.117 0L214.117 133.478L212.577 133.478Z" fill="black" fill-opacity="0.27"/>
<path fill-rule="evenodd" clip-rule="evenodd" d="M970.46 134.411L78.561 134.411L78.561 133.478L970.46 133.478L970.46 134.411Z" fill="black" fill-opacity="0.27"/>
<path fill-rule="evenodd" clip-rule="evenodd" d="M967.379 200.683L52.374 200.683L52.374 199.75L967.379 199.75L967.379 200.683Z" fill="black" fill-opacity="0.27"/>
<path fill-rule="evenodd" clip-rule="evenodd" d="M967.379 167.081L7.70203 167.081L7.70203 166.147L967.379 166.147L967.379 167.081Z" fill="black" fill-opacity="0.27"/>
<path fill-rule="evenodd" clip-rule="evenodd" d="M967.379 233.353L1.34667e-07 233.353L0 232.419L967.379 232.419L967.379 233.353Z" fill="black" fill-opacity="0.27"/>
<path fill-rule="evenodd" clip-rule="evenodd" d="M970.46 266.956L78.561 266.956L78.561 266.022L970.46 266.022L970.46 266.956Z" fill="black" fill-opacity="0.27"/>
<path fill-rule="evenodd" clip-rule="evenodd" d="M525.28 266.022L525.28 133.478L526.821 133.478L526.821 266.022L525.28 266.022Z" fill="black" fill-opacity="0.27"/>
<path fill-rule="evenodd" clip-rule="evenodd" d="M301.921 266.022L301.921 133.478L303.461 133.478L303.461 266.022L301.921 266.022Z" fill="black" fill-opacity="0.27"/>
<path fill-rule="evenodd" clip-rule="evenodd" d="M343.512 266.022L343.512 133.478L345.052 133.478L345.052 266.022L343.512 266.022Z" fill="black" fill-opacity="0.27"/>
<path fill-rule="evenodd" clip-rule="evenodd" d="M120.152 266.022L120.152 133.478L121.693 133.478L121.692 266.022L120.152 266.022Z" fill="black" fill-opacity="0.27"/>
<path fill-rule="evenodd" clip-rule="evenodd" d="M389.724 266.022L389.724 133.478L391.265 133.478L391.265 266.022L389.724 266.022Z" fill="black" fill-opacity="0.27"/>
<path fill-rule="evenodd" clip-rule="evenodd" d="M167.905 266.022L167.905 133.478L169.445 133.478L169.445 266.022L167.905 266.022Z" fill="black" fill-opacity="0.27"/>
<path fill-rule="evenodd" clip-rule="evenodd" d="M477.528 266.022L477.528 133.478L479.068 133.478L479.068 266.022L477.528 266.022Z" fill="black" fill-opacity="0.27"/>
<path fill-rule="evenodd" clip-rule="evenodd" d="M255.708 266.022L255.708 133.478L257.249 133.478L257.249 266.022L255.708 266.022Z" fill="black" fill-opacity="0.27"/>
<path fill-rule="evenodd" clip-rule="evenodd" d="M434.396 266.956L434.396 133.478L435.937 133.478L435.937 266.956L434.396 266.956Z" fill="black" fill-opacity="0.27"/>
<path fill-rule="evenodd" clip-rule="evenodd" d="M212.577 266.956L212.577 133.478L214.117 133.478L214.117 266.956L212.577 266.956Z" fill="black" fill-opacity="0.27"/>
<path fill-rule="evenodd" clip-rule="evenodd" d="M970.46 267.889L78.561 267.889L78.561 266.956L970.46 266.956L970.46 267.889Z" fill="black" fill-opacity="0.27"/>
<path fill-rule="evenodd" clip-rule="evenodd" d="M967.379 334.161L52.374 334.161L52.374 333.228L967.379 333.228L967.379 334.161Z" fill="black" fill-opacity="0.27"/>
<path fill-rule="evenodd" clip-rule="evenodd" d="M967.379 300.558L7.70203 300.558L7.70203 299.625L967.379 299.625L967.379 300.558Z" fill="black" fill-opacity="0.27"/>
<path fill-rule="evenodd" clip-rule="evenodd" d="M967.379 366.831L1.34667e-07 366.831L0 365.897L967.379 365.897L967.379 366.831Z" fill="black" fill-opacity="0.27"/>
<path fill-rule="evenodd" clip-rule="evenodd" d="M970.46 400.433L78.561 400.433L78.561 399.5L970.46 399.5L970.46 400.433Z" fill="black" fill-opacity="0.27"/>
<path fill-rule="evenodd" clip-rule="evenodd" d="M525.28 399.5L525.28 266.956L526.821 266.956L526.821 399.5L525.28 399.5Z" fill="black" fill-opacity="0.27"/>
<path fill-rule="evenodd" clip-rule="evenodd" d="M301.921 399.5L301.921 266.956L303.461 266.956L303.461 399.5L301.921 399.5Z" fill="black" fill-opacity="0.27"/>
<path fill-rule="evenodd" clip-rule="evenodd" d="M343.512 399.5L343.512 266.956L345.052 266.956L345.052 399.5L343.512 399.5Z" fill="black" fill-opacity="0.27"/>
<path fill-rule="evenodd" clip-rule="evenodd" d="M120.152 399.5L120.152 266.956L121.693 266.956L121.692 399.5L120.152 399.5Z" fill="black" fill-opacity="0.27"/>
<path fill-rule="evenodd" clip-rule="evenodd" d="M389.724 399.5L389.724 266.956L391.265 266.956L391.265 399.5L389.724 399.5Z" fill="black" fill-opacity="0.27"/>
<path fill-rule="evenodd" clip-rule="evenodd" d="M167.905 399.5L167.905 266.956L169.445 266.956L169.445 399.5L167.905 399.5Z" fill="black" fill-opacity="0.27"/>
<path fill-rule="evenodd" clip-rule="evenodd" d="M477.528 399.5L477.528 266.956L479.068 266.956L479.068 399.5L477.528 399.5Z" fill="black" fill-opacity="0.27"/>
<path fill-rule="evenodd" clip-rule="evenodd" d="M255.708 399.5L255.708 266.956L257.249 266.956L257.249 399.5L255.708 399.5Z" fill="black" fill-opacity="0.27"/>
<path fill-rule="evenodd" clip-rule="evenodd" d="M434.396 400.433L434.396 266.956L435.937 266.956L435.937 400.433L434.396 400.433Z" fill="black" fill-opacity="0.27"/>
<path fill-rule="evenodd" clip-rule="evenodd" d="M212.577 400.433L212.577 266.956L214.117 266.956L214.117 400.433L212.577 400.433Z" fill="black" fill-opacity="0.27"/>
<path fill-rule="evenodd" clip-rule="evenodd" d="M970.46 401.367L78.561 401.367L78.561 400.433L970.46 400.433L970.46 401.367Z" fill="black" fill-opacity="0.27"/>
<path fill-rule="evenodd" clip-rule="evenodd" d="M967.379 467.639L52.374 467.639L52.374 466.706L967.379 466.706L967.379 467.639Z" fill="black" fill-opacity="0.27"/>
<path fill-rule="evenodd" clip-rule="evenodd" d="M967.379 434.036L7.70203 434.036L7.70203 433.103L967.379 433.103L967.379 434.036Z" fill="black" fill-opacity="0.27"/>
<path fill-rule="evenodd" clip-rule="evenodd" d="M967.379 500.308L1.34667e-07 500.308L0 499.375L967.379 499.375L967.379 500.308Z" fill="black" fill-opacity="0.27"/>
<path fill-rule="evenodd" clip-rule="evenodd" d="M970.46 533.911L78.561 533.911L78.561 532.978L970.46 532.978L970.46 533.911Z" fill="black" fill-opacity="0.27"/>
<path fill-rule="evenodd" clip-rule="evenodd" d="M525.28 532.978L525.28 400.433L526.821 400.433L526.821 532.978L525.28 532.978Z" fill="black" fill-opacity="0.27"/>
<path fill-rule="evenodd" clip-rule="evenodd" d="M301.921 532.978L301.921 400.433L303.461 400.433L303.461 532.978L301.921 532.978Z" fill="black" fill-opacity="0.27"/>
<path fill-rule="evenodd" clip-rule="evenodd" d="M343.512 532.978L343.512 400.433L345.052 400.433L345.052 532.978L343.512 532.978Z" fill="black" fill-opacity="0.27"/>
<path fill-rule="evenodd" clip-rule="evenodd" d="M120.152 532.978L120.152 400.433L121.693 400.433L121.692 532.978L120.152 532.978Z" fill="black" fill-opacity="0.27"/>
<path fill-rule="evenodd" clip-rule="evenodd" d="M389.724 532.978L389.724 400.433L391.265 400.433L391.265 532.978L389.724 532.978Z" fill="black" fill-opacity="0.27"/>
<path fill-rule="evenodd" clip-rule="evenodd" d="M167.905 532.978L167.905 400.433L169.445 400.433L169.445 532.978L167.905 532.978Z" fill="black" fill-opacity="0.27"/>
<path fill-rule="evenodd" clip-rule="evenodd" d="M477.528 532.978L477.528 400.433L479.068 400.433L479.068 532.978L477.528 532.978Z" fill="black" fill-opacity="0.27"/>
<path fill-rule="evenodd" clip-rule="evenodd" d="M255.708 532.978L255.708 400.433L257.249 400.433L257.249 532.978L255.708 532.978Z" fill="black" fill-opacity="0.27"/>
<path fill-rule="evenodd" clip-rule="evenodd" d="M434.396 533.911L434.396 400.433L435.937 400.433L435.937 533.911L434.396 533.911Z" fill="black" fill-opacity="0.27"/>
<path fill-rule="evenodd" clip-rule="evenodd" d="M212.577 533.911L212.577 400.433L214.117 400.433L214.117 533.911L212.577 533.911Z" fill="black" fill-opacity="0.27"/>
<path fill-rule="evenodd" clip-rule="evenodd" d="M970.46 533.911L78.561 533.911L78.561 532.978L970.46 532.978L970.46 533.911Z" fill="black" fill-opacity="0.27"/>
<path fill-rule="evenodd" clip-rule="evenodd" d="M967.379 600.183L52.374 600.183L52.374 599.25L967.379 599.25L967.379 600.183Z" fill="black" fill-opacity="0.27"/>
<path fill-rule="evenodd" clip-rule="evenodd" d="M967.379 566.581L7.70203 566.581L7.70203 565.647L967.379 565.647L967.379 566.581Z" fill="black" fill-opacity="0.27"/>
<path fill-rule="evenodd" clip-rule="evenodd" d="M967.379 632.853L1.34667e-07 632.853L0 631.919L967.379 631.919L967.379 632.853Z" fill="black" fill-opacity="0.27"/>
<path fill-rule="evenodd" clip-rule="evenodd" d="M970.46 666.456L78.561 666.456L78.561 665.522L970.46 665.522L970.46 666.456Z" fill="black" fill-opacity="0.27"/>
<path fill-rule="evenodd" clip-rule="evenodd" d="M525.28 665.522L525.28 532.978L526.821 532.978L526.821 665.522L525.28 665.522Z" fill="black" fill-opacity="0.27"/>
<path fill-rule="evenodd" clip-rule="evenodd" d="M301.921 665.522L301.921 532.978L303.461 532.978L303.461 665.522L301.921 665.522Z" fill="black" fill-opacity="0.27"/>
<path fill-rule="evenodd" clip-rule="evenodd" d="M343.512 665.522L343.512 532.978L345.052 532.978L345.052 665.522L343.512 665.522Z" fill="black" fill-opacity="0.27"/>
<path fill-rule="evenodd" clip-rule="evenodd" d="M120.152 665.522L120.152 532.978L121.693 532.978L121.692 665.522L120.152 665.522Z" fill="black" fill-opacity="0.27"/>
<path fill-rule="evenodd" clip-rule="evenodd" d="M389.724 665.522L389.724 532.978L391.265 532.978L391.265 665.522L389.724 665.522Z" fill="black" fill-opacity="0.27"/>
<path fill-rule="evenodd" clip-rule="evenodd" d="M167.905 665.522L167.905 532.978L169.445 532.978L169.445 665.522L167.905 665.522Z" fill="black" fill-opacity="0.27"/>
<path fill-rule="evenodd" clip-rule="evenodd" d="M477.528 665.522L477.528 532.978L479.068 532.978L479.068 665.522L477.528 665.522Z" fill="black" fill-opacity="0.27"/>
<path fill-rule="evenodd" clip-rule="evenodd" d="M255.708 665.522L255.708 532.978L257.249 532.978L257.249 665.522L255.708 665.522Z" fill="black" fill-opacity="0.27"/>
<path fill-rule="evenodd" clip-rule="evenodd" d="M434.396 666.456L434.396 532.978L435.937 532.978L435.937 666.456L434.396 666.456Z" fill="black" fill-opacity="0.27"/>
<path fill-rule="evenodd" clip-rule="evenodd" d="M212.577 666.456L212.577 532.978L214.117 532.978L214.117 666.456L212.577 666.456Z" fill="black" fill-opacity="0.27"/>
<path fill-rule="evenodd" clip-rule="evenodd" d="M970.46 666.456L78.561 666.456L78.561 665.522L970.46 665.522L970.46 666.456Z" fill="black" fill-opacity="0.27"/>
<path fill-rule="evenodd" clip-rule="evenodd" d="M967.379 732.728L52.374 732.728L52.374 731.794L967.379 731.794L967.379 732.728Z" fill="black" fill-opacity="0.27"/>
<path fill-rule="evenodd" clip-rule="evenodd" d="M967.379 699.125L7.70203 699.125L7.70203 698.192L967.379 698.192L967.379 699.125Z" fill="black" fill-opacity="0.27"/>
<path fill-rule="evenodd" clip-rule="evenodd" d="M970.46 799L78.561 799L78.561 798.067L970.46 798.067L970.46 799Z" fill="black" fill-opacity="0.27"/>
<path fill-rule="evenodd" clip-rule="evenodd" d="M525.28 739.262L525.28 665.522L526.821 665.522L526.821 739.262L525.28 739.262Z" fill="black" fill-opacity="0.27"/>
<path fill-rule="evenodd" clip-rule="evenodd" d="M301.921 739.262L301.921 665.522L303.461 665.522L303.461 739.262L301.921 739.262Z" fill="black" fill-opacity="0.27"/>
<path fill-rule="evenodd" clip-rule="evenodd" d="M343.512 739.262L343.512 665.522L345.052 665.522L345.052 739.262L343.512 739.262Z" fill="black" fill-opacity="0.27"/>
<path fill-rule="evenodd" clip-rule="evenodd" d="M120.152 739.262L120.152 665.522L121.693 665.522L121.692 739.262L120.152 739.262Z" fill="black" fill-opacity="0.27"/>
<path fill-rule="evenodd" clip-rule="evenodd" d="M389.724 739.262L389.724 665.522L391.265 665.522L391.265 739.262L389.724 739.262Z" fill="black" fill-opacity="0.27"/>
<path fill-rule="evenodd" clip-rule="evenodd" d="M167.905 739.262L167.905 665.522L169.445 665.522L169.445 739.262L167.905 739.262Z" fill="black" fill-opacity="0.27"/>
<path fill-rule="evenodd" clip-rule="evenodd" d="M477.528 739.262L477.528 665.522L479.068 665.522L479.068 739.262L477.528 739.262Z" fill="black" fill-opacity="0.27"/>
<path fill-rule="evenodd" clip-rule="evenodd" d="M255.708 739.262L255.708 665.522L257.249 665.522L257.249 739.262L255.708 739.262Z" fill="black" fill-opacity="0.27"/>
<path fill-rule="evenodd" clip-rule="evenodd" d="M434.396 740.195L434.396 665.522L435.937 665.522L435.937 740.195L434.396 740.195Z" fill="black" fill-opacity="0.27"/>
<path fill-rule="evenodd" clip-rule="evenodd" d="M212.577 740.195L212.577 665.522L214.117 665.522L214.117 740.195L212.577 740.195Z" fill="black" fill-opacity="0.27"/>
</svg>
