<svg width="300" height="300" viewBox="0 0 130 259" fill="none" xmlns="http://www.w3.org/2000/svg">
<mask id="mask0" mask-type="alpha" maskUnits="userSpaceOnUse" x="-102" y="27" width="205" height="205">
<path d="M93.755 108.672C90.9318 107.042 89.9669 103.441 91.5968 100.618C93.2268 97.7944 96.828 96.8295 99.6511 98.4594C102.474 100.089 103.439 103.691 101.809 106.514C100.194 109.312 96.5729 110.282 93.755 108.672ZM84.1969 137.048C85.8268 134.225 84.8619 130.623 82.0387 128.993C79.2156 127.363 75.6143 128.328 73.9844 131.152C72.3544 133.975 73.3194 137.576 76.1425 139.206C78.9412 140.822 82.5617 139.852 84.1969 137.048ZM66.5599 167.568C68.1898 164.744 67.2249 161.143 64.4017 159.513C61.5785 157.883 57.9773 158.848 56.3474 161.671C54.7174 164.495 55.6824 168.096 58.5055 169.726C61.3287 171.356 64.9299 170.391 66.5599 167.568ZM48.9281 198.107C50.558 195.284 49.5931 191.682 46.7699 190.052C43.9468 188.422 40.3455 189.387 38.7156 192.211C37.0856 195.034 38.0506 198.635 40.8737 200.265C43.6969 201.895 47.2982 200.93 48.9281 198.107ZM31.2963 228.646C32.9262 225.823 31.9613 222.222 29.1381 220.592C26.315 218.962 22.7137 219.927 21.0837 222.75C19.4538 225.573 20.4187 229.174 23.2419 230.804C26.0651 232.434 29.6663 231.469 31.2963 228.646ZM71.2895 88.8767C72.9194 86.0536 71.9545 82.4523 69.1313 80.8224C66.3082 79.1924 62.707 80.1574 61.077 82.9805C59.4471 85.8037 60.412 89.4049 63.2352 91.0349C66.0389 92.67 69.6595 91.6999 71.2895 88.8767ZM53.6577 119.416C55.2876 116.593 54.3227 112.992 51.4995 111.362C48.6764 109.732 45.0751 110.697 43.4452 113.52C41.8152 116.343 42.7802 119.944 45.6033 121.574C48.4213 123.185 52.0225 122.22 53.6577 119.416ZM36.0259 149.955C37.6559 147.132 36.6909 143.531 33.8677 141.901C31.0446 140.271 27.4433 141.236 25.8134 144.059C24.1834 146.882 25.1484 150.483 27.9715 152.113C30.7895 153.724 34.3908 152.759 36.0259 149.955ZM18.3889 180.475C20.0188 177.652 19.0539 174.051 16.2307 172.421C13.4076 170.791 9.80632 171.756 8.17636 174.579C6.54641 177.402 7.51136 181.003 10.3345 182.633C13.1577 184.263 16.7589 183.298 18.3889 180.475ZM0.757083 211.014C2.38703 208.191 1.42208 204.59 -1.40107 202.96C-4.22423 201.33 -7.82551 202.295 -9.45546 205.118C-11.0854 207.941 -10.1205 211.542 -7.29731 213.172C-4.47415 214.802 -0.872869 213.837 0.757083 211.014ZM40.7503 71.2449C42.3802 68.4217 41.4153 64.8205 38.5921 63.1906C35.769 61.5606 32.1678 62.5256 30.5378 65.3487C28.9079 68.1719 29.8728 71.7731 32.6959 73.4031C35.5191 75.033 39.1203 74.0681 40.7503 71.2449ZM23.1185 101.784C24.7485 98.9609 23.7835 95.3597 20.9604 93.7298C18.1372 92.0998 14.5359 93.0648 12.906 95.8879C11.276 98.7111 12.241 102.312 15.0641 103.942C17.8873 105.572 21.4886 104.607 23.1185 101.784ZM5.4867 132.323C7.11665 129.5 6.15171 125.899 3.32855 124.269C0.505391 122.639 -3.09588 123.604 -4.72583 126.427C-6.35578 129.25 -5.39084 132.852 -2.56768 134.481C0.25029 136.092 3.85156 135.127 5.4867 132.323ZM-12.1451 162.862C-10.5152 160.039 -11.4801 156.438 -14.3033 154.808C-17.1264 153.178 -20.7277 154.143 -22.3577 156.966C-23.9876 159.789 -23.0227 163.391 -20.1995 165.021C-17.3815 166.631 -13.7802 165.666 -12.1451 162.862ZM-29.7821 193.382C-28.1522 190.559 -29.1171 186.958 -31.9403 185.328C-34.7634 183.698 -38.3647 184.663 -39.9947 187.486C-41.6246 190.309 -40.6597 193.911 -37.8365 195.541C-35.0134 197.17 -31.4121 196.205 -29.7821 193.382ZM10.2111 53.6131C11.8411 50.7899 10.8761 47.1887 8.05298 45.5587C5.22983 43.9288 1.62855 44.8938 -0.00140447 47.7169C-1.63136 50.5401 -0.666414 54.1413 2.15675 55.7712C4.9799 57.4012 8.58118 56.4362 10.2111 53.6131ZM-7.42069 84.1523C-5.79074 81.3291 -6.75568 77.7279 -9.57884 76.0979C-12.402 74.468 -16.0033 75.433 -17.6332 78.2561C-19.2632 81.0793 -18.2982 84.6805 -15.4751 86.3104C-12.6519 87.9404 -9.05064 86.9754 -7.42069 84.1523ZM-25.0525 114.691C-23.4226 111.868 -24.3875 108.267 -27.2107 106.637C-30.0338 105.007 -33.6351 105.972 -35.265 108.795C-36.895 111.618 -35.93 115.22 -33.1069 116.85C-30.2837 118.48 -26.6825 117.515 -25.0525 114.691ZM-42.6843 145.231C-41.0544 142.408 -42.0193 138.806 -44.8425 137.176C-47.6656 135.546 -51.2669 136.511 -52.8969 139.335C-54.5268 142.158 -53.5619 145.759 -50.7387 147.389C-47.9207 148.999 -44.3195 148.034 -42.6843 145.231ZM-60.3161 175.77C-58.6862 172.947 -59.6511 169.346 -62.4743 167.716C-65.2975 166.086 -68.8987 167.051 -70.5287 169.874C-72.1586 172.697 -71.1937 176.298 -68.3705 177.928C-65.5526 179.539 -61.9513 178.574 -60.3161 175.77ZM-20.3281 35.9813C-18.6981 33.1581 -19.6631 29.5569 -22.4862 27.9269C-25.3094 26.297 -28.9107 27.2619 -30.5406 30.0851C-32.1706 32.9083 -31.2056 36.5095 -28.3825 38.1394C-25.5593 39.7694 -21.958 38.8044 -20.3281 35.9813ZM-37.9599 66.5205C-36.3299 63.6973 -37.2949 60.0961 -40.118 58.4661C-42.9412 56.8362 -46.5425 57.8011 -48.1724 60.6243C-49.8024 63.4475 -48.8374 67.0487 -46.0143 68.6786C-43.1911 70.3086 -39.5898 69.3436 -37.9599 66.5205ZM-55.5917 97.0597C-53.9618 94.2365 -54.9267 90.6353 -57.7499 89.0053C-60.573 87.3754 -64.1743 88.3403 -65.8043 91.1635C-67.4342 93.9867 -66.4692 97.5879 -63.6461 99.2178C-60.8229 100.848 -57.2217 99.8828 -55.5917 97.0597ZM-73.2235 127.599C-71.5936 124.776 -72.5585 121.174 -75.3817 119.545C-78.2048 117.915 -81.8061 118.88 -83.4361 121.703C-85.066 124.526 -84.1011 128.127 -81.2779 129.757C-78.4548 131.387 -74.8535 130.422 -73.2235 127.599ZM-90.8553 158.138C-89.2254 155.315 -90.1903 151.714 -93.0135 150.084C-95.8367 148.454 -99.4379 149.419 -101.068 152.242C-102.698 155.065 -101.733 158.666 -98.9097 160.296C-96.0866 161.926 -92.4905 160.942 -90.8553 158.138Z" fill="#DA5077"/>
</mask>
<g mask="url(#mask0)">
<g filter="url(#filter0_d)">
<rect x="144.749" y="39.1526" width="238.784" height="238.784" rx="36" transform="rotate(105 144.749 39.1526)" fill="url(#paint0_linear)"/>
</g>
</g>
<defs>
<filter id="filter0_d" x="-142.618" y="-14.5672" width="288.285" height="288.285" filterUnits="userSpaceOnUse" color-interpolation-filters="sRGB">
<feFlood flood-opacity="0" result="BackgroundImageFix"/>
<feColorMatrix in="SourceAlpha" type="matrix" values="0 0 0 0 0 0 0 0 0 0 0 0 0 0 0 0 0 0 127 0"/>
<feOffset dx="3" dy="6"/>
<feGaussianBlur stdDeviation="3"/>
<feColorMatrix type="matrix" values="0 0 0 0 0 0 0 0 0 0 0 0 0 0 0 0 0 0 0.25 0"/>
<feBlend mode="normal" in2="BackgroundImageFix" result="effect1_dropShadow"/>
<feBlend mode="normal" in="SourceGraphic" in2="effect1_dropShadow" result="shape"/>
</filter>
<linearGradient id="paint0_linear" x1="383.533" y1="39.1526" x2="102.127" y2="111.004" gradientUnits="userSpaceOnUse">
<stop stop-color="#409CFB"/>
<stop offset="1" stop-color="#FF6A72"/>
</linearGradient>
</defs>
</svg>
