<svg xmlns="http://www.w3.org/2000/svg" viewBox="0 0 448 115.29"><defs><style>.cls-1{fill:#fff;}</style></defs><g id="Layer_2" data-name="Layer 2"><g id="Layer_1-2" data-name="Layer 1"><path class="cls-1" d="M338.72,31.61,317.78,83.9c-10.09,24.64-15.08,31.39-28,31.39H271.49V100.16h15.89c4.11,0,8.47-3.63,5.23-15L271.55,31.62h19.19l14.45,40.15,14.34-40.15Z"/><path class="cls-1" d="M72.31,0V57.66c0,17.59-8.87,35.87-36.16,35.87S0,72.66,0,53.52H22.51c0,5.91.42,21.29,13.64,21.29S49.8,62.72,49.8,57.65V0Z"/><path class="cls-1" d="M1.71,6.65A8.06,8.06,0,0,1,.59,5.86,1.49,1.49,0,0,1,0,4.7V.94A.86.86,0,0,1,.32.27,1.22,1.22,0,0,1,1.12,0h.24a1.42,1.42,0,0,1,.35.11L20.38,10.58a4.92,4.92,0,0,1,1.15.77,1.41,1.41,0,0,1,.4,1.09V14.3a1.41,1.41,0,0,1-.4,1.08,5.3,5.3,0,0,1-1.15.78L1.71,26.61a2.06,2.06,0,0,1-.35.12H1.12a1.21,1.21,0,0,1-.8-.27A.86.86,0,0,1,0,25.8V22a1.47,1.47,0,0,1,.59-1.15,7.36,7.36,0,0,1,1.12-.8l12.06-6.73Z"/><path class="cls-1" d="M144.87,62.68c0,19.89-14.9,30.85-31.81,30.85s-31.81-11-31.81-30.85,14.89-31.1,31.81-31.1S144.87,42.78,144.87,62.68Zm-45.16,0c0,9.53,4.41,16.32,13.35,16.32s13.34-6.79,13.34-16.32S122,46.11,113.06,46.11,99.71,53,99.71,62.68Z"/><path class="cls-1" d="M182,58.39c9.53,4.29,16.32,9.29,16.32,17.87,0,11.2-10.36,17.27-23,17.27-9.17,0-20.49-3.93-26.93-11.2l10.73-10.72c4.88,5,10.72,7.39,14.65,7.39,3.69,0,5.6-1.31,5.6-3.81,0-3.82-4.29-6-12.27-9.89-10.37-5.13-15-9.77-15-17,0-12.75,13.7-16.68,22.16-16.68s18.23,3,24.06,9.89L188,51.83c-3.1-3.21-7.39-5.72-12.15-5.72-2.15,0-5.25,1.08-5.25,3.58C170.6,52.52,172.51,54,182,58.39Z"/><path class="cls-1" d="M271.52,62.52c0,20.49-11.8,31-26.81,31-6.07,0-14.41-1.9-19.54-8.69v8.69H206.71V0h18.46V40.28c5.13-6.79,13.47-8.7,19.54-8.7C259.72,31.58,271.52,43.26,271.52,62.52Zm-18.47,0c0-9.65-5-16.45-13.94-16.45s-13.94,6.8-13.94,16.45S230.17,79,239.11,79,253.05,72.09,253.05,62.52Z"/><path class="cls-1" d="M379.49,90.67c-2.26,1.43-5.84,2.86-12.39,2.86-11.08,0-17.63-6.19-17.63-23.59V46.71h-6.55V31.61h6.55V16.69h18.47V31.61h11.55v15.1H367.94V68.63c0,9.3,3.81,13,11.55,10.25Z"/><path class="cls-1" d="M448,68.52l-41.7-.35c0,6.91,6.79,10.84,13.58,10.84a19.48,19.48,0,0,0,13.82-5.72l11,10.13c-6.47,6.3-14.7,10.1-25.77,10.1-19.3,0-31.1-13.7-31.1-31.09s11.8-30.86,30-30.86c18.58,0,30.14,13.22,30.14,30.86ZM429.53,57c0-6.56-5-10.85-11.67-10.85-6.44,0-11.56,4.29-11.56,10.85Z"/></g></g></svg>