<svg width="89" height="89" viewBox="0 0 89 89" fill="none" xmlns="http://www.w3.org/2000/svg">
<path d="M87.3195 40.5277L48.4544 1.68299C47.9222 1.14951 47.2899 0.726245 46.5939 0.43745C45.8978 0.148655 45.1516 0 44.398 0C43.6443 0 42.8981 0.148655 42.202 0.43745C41.506 0.726245 40.8737 1.14951 40.3415 1.68299L32.287 9.75002L42.5276 19.9749C43.7305 19.5669 45.0237 19.5041 46.2606 19.7936C47.4974 20.0831 48.6284 20.7133 49.5252 21.6128C51.4387 23.526 51.9727 26.2762 51.1633 28.651L61.0145 38.5144C62.2214 38.0942 63.5225 38.0234 64.768 38.3102C66.0134 38.597 67.1524 39.2298 68.0538 40.1356C70.735 42.7996 70.735 47.1153 68.0538 49.7821C67.4217 50.4154 66.6708 50.9178 65.8443 51.2606C65.0177 51.6034 64.1316 51.7799 63.2367 51.7799C62.3418 51.7799 61.4558 51.6034 60.6292 51.2606C59.8026 50.9178 59.0517 50.4154 58.4196 49.7821C57.4703 48.8324 56.8212 47.6245 56.5532 46.3089C56.2852 44.9932 56.41 43.6277 56.9122 42.3824L47.684 33.2003V57.4014C48.3348 57.7212 48.9578 58.155 49.4946 58.6917C52.1451 61.3724 52.1451 65.6714 49.4946 68.3382C48.2097 69.6177 46.4701 70.3361 44.6566 70.3361C42.8431 70.3361 41.1035 69.6177 39.8186 68.3382C39.0235 67.543 38.4374 66.5636 38.1124 65.4871C37.7873 64.4107 37.7335 63.2706 37.9556 62.1683C38.1778 61.066 38.669 60.0357 39.3856 59.1691C40.1023 58.3025 41.022 57.6265 42.0631 57.2012V32.7693C41.2327 32.4167 40.476 31.9111 39.8325 31.2788C38.8755 30.3244 38.225 29.1062 37.9644 27.78C37.7038 26.4539 37.8449 25.0802 38.3696 23.8347L28.3154 13.7265L1.66275 40.3608C0.597269 41.4419 0 42.8988 0 44.4166C0 45.9344 0.597269 47.3912 1.66275 48.4723L40.5279 87.317C41.0601 87.8505 41.6923 88.2738 42.3884 88.5626C43.0845 88.8514 43.8307 89 44.5843 89C45.3379 89 46.0841 88.8514 46.7802 88.5626C47.4763 88.2738 48.1085 87.8505 48.6407 87.317L87.3167 48.6475C87.8503 48.1154 88.2736 47.4833 88.5625 46.7873C88.8513 46.0914 89 45.3453 89 44.5918C89 43.8383 88.8513 43.0922 88.5625 42.3962C88.2736 41.7003 87.8503 41.0681 87.3167 40.536L87.3195 40.5277Z" fill="url(#paint0_linear)"/>
<defs>
<linearGradient id="paint0_linear" x1="7.37546" y1="1.56574" x2="89" y2="89" gradientUnits="userSpaceOnUse">
<stop stop-color="#636363"/>
<stop offset="1" stop-color="#242424"/>
</linearGradient>
</defs>
</svg>
