<svg width="85" height="61" viewBox="0 0 85 61" fill="none" xmlns="http://www.w3.org/2000/svg">
<path d="M52.6744 42.6578C53.773 44.905 55.4777 46.7938 57.5926 48.1073C59.7075 49.4207 62.1467 50.1055 64.63 50.0829C69.6517 50.0829 72.8602 47.5495 72.8602 44.0514C72.8602 39.86 69.5632 38.3736 64.0386 35.9331L61.0072 34.6217C52.2636 30.8627 46.4522 26.1532 46.4522 16.1983C46.4522 7.02586 53.3791 0.0474008 64.2015 0.0474008C67.714 -0.20976 71.2237 0.583517 74.2918 2.32805C77.3599 4.07259 79.8503 6.69097 81.4515 9.85584L72.0138 15.9696C71.3958 14.4013 70.3195 13.0599 68.9279 12.1236C67.5363 11.1873 65.8952 10.7004 64.2228 10.7277C63.4938 10.6537 62.7575 10.7338 62.0609 10.9628C61.3643 11.1919 60.7227 11.5649 60.1769 12.0581C59.6311 12.5513 59.1932 13.1539 58.891 13.8273C58.5889 14.5008 58.4291 15.2304 58.422 15.9696C58.422 19.6393 60.6743 21.1221 65.8589 23.3947L68.8903 24.7025C79.1886 29.1583 85 33.6998 85 43.912C85 54.921 76.4299 60.9526 64.9169 60.9526C60.4323 61.2404 55.9611 60.2128 52.0425 57.9937C48.1239 55.7746 44.9254 52.4588 42.8329 48.4464L52.6744 42.6578ZM9.86626 43.7298C11.7715 47.1386 13.5032 50.0186 17.6573 50.0186C21.6378 50.0186 24.1522 48.4464 24.1522 42.3362V0.76204H36.2707V42.5077C36.2707 55.1676 28.9118 60.9312 18.1743 60.9312C14.3815 61.1383 10.6153 60.1822 7.37135 58.1884C4.12738 56.1947 1.55757 53.2568 0 49.7613L9.86626 43.7298Z" fill="url(#paint0_linear)"/>
<defs>
<linearGradient id="paint0_linear" x1="7.04398" y1="1.07315" x2="58.9053" y2="78.4825" gradientUnits="userSpaceOnUse">
<stop stop-color="#636363"/>
<stop offset="1" stop-color="#242424"/>
</linearGradient>
</defs>
</svg>
