<svg width="97" height="97" viewBox="0 0 97 97" fill="none" xmlns="http://www.w3.org/2000/svg">
<path d="M71.9869 90.9434C71.6262 91.1344 71.6565 91.195 72.0021 91.0192C72.1086 90.9757 72.2062 90.9131 72.29 90.8343C72.29 90.7707 72.29 90.7706 71.9869 90.9434V90.9434ZM72.7144 90.5494C72.5416 90.6918 72.5416 90.6918 72.7477 90.5979C72.8239 90.5622 72.8936 90.514 72.9538 90.4554C72.9538 90.3735 72.9053 90.3917 72.7144 90.5494V90.5494ZM73.1872 90.2644C73.0145 90.4069 73.0145 90.4069 73.2206 90.3129C73.2971 90.2765 73.3668 90.2273 73.4267 90.1674C73.4267 90.0916 73.3782 90.1068 73.1872 90.2644ZM73.6662 89.9825C73.4934 90.125 73.4934 90.125 73.6934 90.028C73.8056 89.9674 73.8996 89.9037 73.8996 89.8855C73.8996 89.8097 73.8511 89.8249 73.6662 89.9825ZM74.3118 89.5551C73.9814 89.7764 73.8662 89.9189 74.1693 89.7612C74.3724 89.6369 74.718 89.3641 74.6574 89.3641C74.527 89.4126 74.4179 89.4945 74.3088 89.5551H74.3118ZM45.3249 0.0222802C45.1036 0.0374368 44.4398 0.098063 43.8578 0.146564C30.0721 1.39546 17.1745 8.81611 8.9995 20.2472C4.48176 26.5167 1.54516 33.7847 0.439518 41.433C0.0484985 44.1006 0 44.8887 0 48.5051C0 52.1184 0.0484985 52.8944 0.439518 55.562C3.07965 73.7832 16.0409 89.0792 33.6095 94.7477C36.7709 95.7572 40.084 96.4544 43.8578 96.8818C45.3249 97.0394 51.6691 97.0394 53.1362 96.8818C59.6592 96.1543 65.1668 94.5446 70.6168 91.7649C71.4534 91.3405 71.611 91.2284 71.4989 91.1344C68.8402 87.6198 66.2041 84.0883 63.5906 80.54L55.8399 70.0729L46.1312 55.6893C42.9017 50.8733 39.6391 46.0797 36.3436 41.3087C36.3102 41.3087 36.2678 47.7018 36.2496 55.4983C36.2162 69.1544 36.2162 69.7091 36.0435 70.0244C35.8778 70.4052 35.5809 70.7139 35.2069 70.8943C34.9068 71.0368 34.637 71.0671 33.2033 71.0671H31.5634L31.136 70.8004C30.8683 70.6286 30.6508 70.3891 30.5055 70.1062L30.2994 69.6788L30.3146 50.6694L30.3479 31.6601L30.648 31.2812C30.8397 31.0482 31.0756 30.8555 31.3421 30.7143C31.7392 30.5233 31.8968 30.493 33.5367 30.493C35.4615 30.493 35.7798 30.5688 36.286 31.1235C40.219 36.9736 44.1181 42.8463 47.9832 48.7415C54.285 58.2962 62.8874 71.3339 67.1158 77.7299L74.8059 89.3672L75.1848 89.1156C78.8805 86.6595 82.2296 83.7181 85.1421 80.3702C91.2516 73.3772 95.2159 64.7714 96.5605 55.5832C96.9515 52.9156 97 52.1245 97 48.5111C97 44.8948 96.9515 44.1218 96.5605 41.4542C93.9204 23.233 80.9591 7.93703 63.3906 2.26545C60.1071 1.22547 56.7276 0.51765 53.3029 0.152627C52.3844 0.058656 46.116 -0.0535026 45.3279 0.0283429L45.3249 0.0222802ZM65.1698 29.3563C65.3953 29.467 65.5965 29.6217 65.7615 29.8111C65.9265 30.0006 66.052 30.2211 66.1307 30.4597C66.2126 30.7143 66.2277 35.9858 66.2126 47.8594L66.1792 64.9075L63.1814 60.2999L60.1654 55.6893V43.3124C60.1654 35.2886 60.1987 30.7901 60.2412 30.5688C60.3896 30.0614 60.7299 29.6319 61.1899 29.3714C61.5658 29.1805 61.7113 29.1653 63.2117 29.1653C64.6151 29.1653 64.8516 29.1805 65.1668 29.3563H65.1698Z" fill="url(#paint0_linear)"/>
<defs>
<linearGradient id="paint0_linear" x1="8.03843" y1="1.70648" x2="97" y2="97" gradientUnits="userSpaceOnUse">
<stop stop-color="#636363"/>
<stop offset="1" stop-color="#242424"/>
</linearGradient>
</defs>
</svg>
