<svg width="70" height="44" viewBox="0 0 70 44" fill="none" xmlns="http://www.w3.org/2000/svg">
<path d="M20.4509 15.7498H17.6925L16.1897 24.98H18.6397C20.2562 24.98 21.4638 24.6141 22.2622 23.8795C23.0475 23.158 23.5834 21.932 23.8569 20.2303C24.1281 18.5965 24.0034 17.4384 23.5047 16.7588C22.9906 16.0922 21.9756 15.7524 20.4509 15.7524V15.7498ZM35 0C15.6647 0 0 9.85765 0 22C0 34.1423 15.6647 44 35 44C54.3353 44 70 34.1423 70 22C70 9.85765 54.3353 0 35 0ZM25.4866 25.976C24.7293 26.8457 23.8179 27.5006 22.82 27.8921C21.84 28.2607 20.5887 28.4646 19.0728 28.4646H15.6187L14.6738 34.3201H10.6509L14.2406 12.2783H21.9647C24.29 12.2783 25.9875 12.9998 27.0572 14.4558C28.1181 15.9118 28.4484 17.956 28.0131 20.5701C27.8502 21.6053 27.5512 22.6032 27.1272 23.5266C26.6909 24.4413 26.1364 25.2679 25.4844 25.976H25.4866ZM37.2334 28.4646L38.8172 18.7063C38.9988 17.6005 38.9309 16.8424 38.6094 16.4294C38.3031 16.0347 37.6294 15.8308 36.6056 15.8308H33.4272L31.3775 28.4646H27.3787L30.9663 6.4097H34.9541L33.9981 12.2783H37.5528C39.7994 12.2783 41.335 12.741 42.1794 13.6663C43.0347 14.6074 43.2841 16.1157 42.9559 18.2018L41.2781 28.4672L37.2334 28.4646ZM59.3797 20.5701C59.2218 21.6069 58.9225 22.6057 58.4937 23.5266C58.0615 24.4403 57.5116 25.2669 56.8641 25.976C56.0999 26.8416 55.1858 27.4958 54.1866 27.8921C53.2066 28.2607 51.9531 28.4646 50.4394 28.4646H46.9984L46.0425 34.3201H42.0197L45.6094 12.2783H53.3334C55.6588 12.2783 57.3562 12.9998 58.4259 14.4715C59.4869 15.9144 59.8172 17.956 59.3819 20.5701H59.3797ZM51.8175 15.7498H49.07L47.5672 24.98H50.0063C51.6338 24.98 52.8413 24.6141 53.6288 23.8795C54.425 23.158 54.9609 21.932 55.2366 20.2303C55.5078 18.5965 55.3831 17.4384 54.8691 16.7588C54.3703 16.0922 53.3444 15.7524 51.8175 15.7524V15.7498Z" fill="url(#paint0_linear)"/>
<defs>
<linearGradient id="paint0_linear" x1="5.80093" y1="0.774073" x2="41.113" y2="60.951" gradientUnits="userSpaceOnUse">
<stop stop-color="#636363"/>
<stop offset="1" stop-color="#242424"/>
</linearGradient>
</defs>
</svg>
