<svg width="101" height="91" viewBox="0 0 101 91" fill="none" xmlns="http://www.w3.org/2000/svg">
<path d="M50.5 36.3802C45.5352 36.3802 41.4921 40.4746 41.4921 45.5022C41.4921 50.5298 45.5352 54.6241 50.5 54.6241C55.4648 54.6241 59.5079 50.5298 59.5079 45.5022C59.5079 40.4746 55.4648 36.3802 50.5 36.3802ZM25.2816 63.631L23.2931 63.1324C8.49662 59.3353 0 52.911 0 45.4862C0 38.0614 8.49978 31.6371 23.2931 27.84L25.2816 27.3414L25.8402 29.339C27.3412 34.5712 29.2603 39.6711 31.5783 44.5881L32.0044 45.4862L31.5783 46.4003C29.2554 51.3152 27.3362 56.4154 25.8402 61.6493L25.2816 63.631ZM22.3747 32.5001C11.1289 35.6963 4.22622 40.6056 4.22622 45.4862C4.22622 50.3668 11.1321 55.257 22.3747 58.4723C23.7528 54.0381 25.4166 49.7 27.3552 45.4862C25.4139 41.2735 23.7501 36.9353 22.3747 32.5001V32.5001ZM75.7184 63.631L75.1598 61.6334C73.6614 56.4054 71.7423 51.3107 69.4217 46.4003L68.9956 45.4862L69.4217 44.5721C71.7446 39.6572 73.6638 34.557 75.1598 29.323L75.7184 27.3414L77.7069 27.84C92.5034 31.6371 101 38.0614 101 45.4862C101 52.911 92.5002 59.3353 77.7069 63.1324L75.7184 63.631ZM73.6448 45.4862C75.5899 49.6973 77.2538 54.0357 78.6253 58.4723C89.8868 55.2602 96.7738 50.3668 96.7738 45.4862C96.7738 40.6056 89.8679 35.7154 78.6253 32.5001C77.2439 36.9332 75.5803 41.271 73.6448 45.4862ZM22.3399 32.4841L21.7813 30.4865C17.6213 15.6369 18.887 4.98402 25.25 1.27005C31.4962 -2.37681 41.5078 1.93485 52.0118 12.8562L53.4416 14.3393L52.0118 15.8223C48.2816 19.7524 44.8732 23.9832 41.8203 28.4729L41.2459 29.2879L40.258 29.371C34.8875 29.8003 29.5603 30.6693 24.3284 31.9695L22.3399 32.4841ZM30.3284 4.23611C29.1953 4.23611 28.1916 4.46944 27.3521 4.96804C23.1763 7.41633 22.4378 15.9054 25.3131 27.3574C29.7996 26.3411 34.3469 25.6236 38.926 25.2095C41.5623 21.4073 44.445 17.7866 47.5552 14.3712C40.9965 7.89576 34.7819 4.23292 30.3284 4.23292V4.23611ZM70.6874 90.9968C70.6716 90.9968 70.6716 90.9968 70.6874 90.9968C64.6873 90.9968 56.9766 86.4358 48.9882 78.1129L47.5584 76.6299L48.9882 75.1469C52.7184 71.2168 56.1268 66.986 59.1797 62.4963L59.7383 61.6813L60.7262 61.5822C66.1036 61.1674 71.4373 60.2982 76.6716 58.9837L78.6601 58.4851L79.2187 60.4827C83.3787 75.3323 82.113 85.9692 75.75 89.68C74.2116 90.5753 72.4614 91.0295 70.6874 90.9936V90.9968ZM53.4416 76.5979C60.0003 83.0734 66.215 86.7363 70.6684 86.7363H70.6842C71.8015 86.7363 72.8052 86.487 73.6448 86.0043C77.8205 83.5561 78.578 75.067 75.6837 63.615C71.1981 64.6323 66.6503 65.3445 62.0708 65.7469C59.4347 69.5543 56.5519 73.1803 53.4416 76.6011V76.5979ZM78.6601 32.4841L76.6716 31.9695C71.4335 30.6736 66.1014 29.8046 60.7262 29.371L59.7383 29.2879L59.1797 28.4729C56.1268 23.9832 52.7184 19.7524 48.9882 15.8223L47.5584 14.3393L48.9882 12.8562C59.4922 1.93485 69.5038 -2.37681 75.75 1.27005C82.113 4.98083 83.3787 15.6369 79.2187 30.4865L78.6601 32.4841ZM62.074 25.2095C66.6532 25.6225 71.2006 26.34 75.6869 27.3574C78.5812 15.9054 77.8237 7.41313 73.6479 4.96804C69.488 2.53894 61.6637 6.2657 53.4448 14.3744C56.5465 17.7971 59.4288 21.4173 62.074 25.2127V25.2095ZM30.3284 90.9968C28.5514 91.0288 26.7934 90.5813 25.25 89.6832C18.887 85.9724 17.6213 75.3323 21.7813 60.4859L22.3399 58.4883L24.3284 58.9869C29.1953 60.2366 34.5546 61.0996 40.258 61.5854L41.2459 61.6845L41.8045 62.4995C44.8575 66.9892 48.2659 71.22 51.9961 75.1501L53.4258 76.6331L51.9961 78.1161C44.0234 86.439 36.3127 91 30.3284 91V90.9968ZM25.3163 63.615C22.422 75.067 23.1795 83.5593 27.3552 86.0043C31.5152 88.4015 39.3237 84.7067 47.5584 76.5979C44.4481 73.1771 41.5653 69.5511 38.9292 65.7437C34.3495 65.3426 29.8017 64.6303 25.3163 63.6118V63.615ZM50.5 66.2934C47.0313 66.2934 43.4805 66.1432 39.9139 65.8428L38.926 65.7597L38.3516 64.9286C36.337 61.9973 34.4447 58.9818 32.6798 55.8898C30.9112 52.7977 29.2717 49.6318 27.7655 46.4003L27.3394 45.4862L27.7655 44.5721C30.783 38.1106 34.3238 31.9133 38.3516 26.0437L38.926 25.2127L39.9139 25.1296C46.9588 24.5288 54.0412 24.5288 61.0861 25.1296L62.074 25.2127L62.6484 26.0437C66.6814 31.9099 70.2225 38.1077 73.2345 44.5721L73.6606 45.4862L73.2345 46.4003C70.2285 52.8679 66.6872 59.0662 62.6484 64.9286L62.074 65.7597L61.0861 65.8428C57.565 66.1411 54.0333 66.2915 50.5 66.2934V66.2934ZM41.2617 61.6653C47.4763 62.148 53.5237 62.148 59.7541 61.6653C63.2289 56.5128 66.317 51.1035 68.9925 45.483C66.3283 39.8533 63.2342 34.4427 59.7383 29.3007C53.5887 28.818 47.4113 28.818 41.2617 29.3007C37.7633 34.4411 34.6691 39.8519 32.0075 45.483C34.6838 51.1063 37.7774 56.5159 41.2617 61.6653V61.6653Z" fill="url(#paint0_linear)"/>
<defs>
<linearGradient id="paint0_linear" x1="8.36991" y1="1.60092" x2="90.7894" y2="99.5884" gradientUnits="userSpaceOnUse">
<stop stop-color="#636363"/>
<stop offset="1" stop-color="#242424"/>
</linearGradient>
</defs>
</svg>
