<svg width="89" height="89" viewBox="0 0 89 89" fill="none" xmlns="http://www.w3.org/2000/svg">
<path d="M44.5 0C69.0835 0 89 19.9165 89 44.5C89 69.0835 69.0835 89 44.5 89C19.9165 89 0 69.0835 0 44.5C0 19.9165 19.9165 0 44.5 0ZM35.6473 59.3185C36.3009 61.7243 36.2286 63.9548 35.5611 65.9685L35.3274 66.636C35.2412 66.8668 35.1272 67.0838 35.0382 67.2896C34.5027 68.3879 33.8104 69.4026 32.9828 70.3017C30.3879 73.1135 26.7834 74.1843 25.2315 73.2859C23.5516 72.3153 24.3888 68.3325 27.3897 65.1563C30.6188 61.7521 35.2551 59.5633 35.2551 59.5633V59.5521L35.6473 59.3185ZM72.4126 19.0488C70.399 11.1389 57.291 8.54678 44.8894 12.9495C37.5024 15.5722 29.523 19.6885 23.7713 25.0618C16.9322 31.4476 15.8476 37.0101 16.2981 39.3269C17.889 47.526 29.1169 52.9022 33.7393 56.871V56.9016C32.3737 57.5663 22.4113 62.5642 20.0778 67.7513C17.5719 73.1942 20.47 77.0935 22.3501 77.5857C28.1908 79.2072 34.201 76.2507 37.4328 71.4698C40.5478 66.7945 40.2697 60.7981 38.9236 57.8417C40.762 57.3494 42.9369 57.1158 45.7182 57.4495C53.514 58.3478 55.0632 63.2456 54.7294 65.2453C54.3957 67.2451 52.7853 68.416 52.2235 68.7497C51.6756 69.0835 51.5004 69.1836 51.556 69.4172C51.6144 69.751 51.8898 69.751 52.3376 69.6926C52.9467 69.5924 56.3954 68.0266 56.5678 64.2441C56.7264 59.4492 52.1623 54.1203 44.0522 54.2205C40.7064 54.2956 38.5898 54.5681 37.0991 55.1772C36.9908 55.0258 36.8583 54.8933 36.7069 54.7851C31.6979 49.3978 22.4113 45.6181 22.8007 38.4313C22.9203 35.8253 23.8603 28.9306 40.6035 20.5868C54.3345 13.7338 65.301 15.6334 67.1839 19.8053C69.9095 25.7572 61.346 36.8265 47.0504 38.4313C41.6019 39.0404 38.7623 36.9406 38.0392 36.159C37.2576 35.3163 37.1575 35.2607 36.8627 35.4359C36.4288 35.6501 36.7042 36.3787 36.8627 36.8265C37.3105 37.939 39.0348 39.8831 42.0497 40.8788C44.6558 41.7215 51.061 42.2138 58.7372 39.2128C67.3563 35.8837 74.0786 26.5971 72.1345 18.8013L72.4126 19.0488Z" fill="url(#paint0_linear)"/>
<defs>
<linearGradient id="paint0_linear" x1="7.37546" y1="1.56574" x2="89" y2="89" gradientUnits="userSpaceOnUse">
<stop stop-color="#636363"/>
<stop offset="1" stop-color="#242424"/>
</linearGradient>
</defs>
</svg>
