<svg width="85" height="93" viewBox="0 0 85 93" fill="none" xmlns="http://www.w3.org/2000/svg">
<path d="M82.381 71.6834L44.1799 93V76.3924L67.9828 63.4714L82.381 71.6834ZM85 69.3469V24.7508L71.0152 32.7204V61.3774L85 69.3469ZM2.61905 71.6834L40.8201 93V76.3924L17.0172 63.4714L2.61905 71.6834ZM0 69.3469V24.7508L13.9848 32.7204V61.3774L0 69.3469ZM1.63691 21.8638L40.8201 0V16.0604L15.5357 29.7842L1.63691 21.8638ZM83.3631 21.8638L44.1799 0V16.0604L69.4643 29.7842L83.3631 21.8638ZM40.8201 72.6239L17.3446 59.8733V34.6309L40.8201 48.0107V72.6239ZM44.1799 72.6239L67.6554 59.8733V34.6309L44.1799 48.0107V72.6239ZM18.9286 31.7144L42.5066 18.931L66.0847 31.7144L42.5066 45.1466L18.9286 31.7144Z" fill="url(#paint0_linear)"/>
<defs>
<linearGradient id="paint0_linear" x1="7.04398" y1="1.63611" x2="92.5195" y2="85.3194" gradientUnits="userSpaceOnUse">
<stop stop-color="#636363"/>
<stop offset="1" stop-color="#242424"/>
</linearGradient>
</defs>
</svg>
