<svg width="70" height="70" viewBox="0 0 70 70" fill="none" xmlns="http://www.w3.org/2000/svg">
<path d="M62.6172 19.9041C65.1445 24.5337 66.4648 29.7254 66.4562 35C66.4562 46.6091 60.1781 56.7503 50.8244 62.195L60.4297 34.4072C62.23 29.9184 62.8228 26.3287 62.8228 23.1394C62.8228 21.9538 62.7441 20.86 62.6172 19.9041ZM39.34 20.2125C41.2322 20.1206 42.9297 19.9041 42.9297 19.9041C44.6272 19.6875 44.4347 17.1916 42.735 17.2834C42.735 17.2834 37.6184 17.6706 34.3372 17.6706C31.2375 17.6706 26.0203 17.2375 26.0203 17.2375C24.3228 17.1456 24.0953 19.7334 25.8037 19.8231C25.8037 19.8231 27.3766 19.9937 29.085 20.0856L33.985 33.5059L27.0703 54.1625L15.6209 20.1184C17.5131 20.0397 19.2216 19.8341 19.2216 19.8341C20.9191 19.6175 20.7266 17.1216 19.0269 17.2134C19.0269 17.2134 13.9344 17.6225 10.6422 17.6225C10.0603 17.6225 9.36688 17.6006 8.63625 17.5766C14.3216 9.17875 24.0166 3.53937 35 3.53937C43.1922 3.53937 50.6428 6.66094 56.2494 11.7994C56.1116 11.7994 55.9869 11.7775 55.8381 11.7775C52.7516 11.7775 50.5509 14.4659 50.5509 17.36C50.5509 19.9588 52.0559 22.1572 53.6506 24.7428C54.8472 26.8384 56.2362 29.54 56.2362 33.425C56.2362 36.0916 55.2103 39.235 53.8431 43.5772L50.7106 54.0247L39.34 20.1644V20.2125ZM35 66.4562C31.9134 66.4562 28.9275 66.0122 26.1122 65.1809L35.5469 37.7453L45.22 64.2469C45.2878 64.4066 45.3687 64.5422 45.4475 64.68C42.091 65.8607 38.5581 66.4621 35 66.4584V66.4562ZM3.53281 35C3.53281 30.4434 4.51281 26.1013 6.25625 22.1944L21.2603 63.3238C10.7778 58.2203 3.53281 47.4534 3.53281 35ZM35 0C15.7106 0 0 15.7106 0 35C0 54.2894 15.7106 70 35 70C54.2894 70 70 54.2894 70 35C70 15.7106 54.2894 0 35 0Z" fill="url(#paint0_linear)"/>
<defs>
<linearGradient id="paint0_linear" x1="5.80093" y1="1.23148" x2="70" y2="70" gradientUnits="userSpaceOnUse">
<stop stop-color="#636363"/>
<stop offset="1" stop-color="#242424"/>
</linearGradient>
</defs>
</svg>
